<?xml version="1.0" encoding="utf-8"?>
<!-- Generator: Adobe Illustrator 24.0.1, SVG Export Plug-In . SVG Version: 6.00 Build 0)  -->
<svg version="1.1" id="Layer_1" xmlns="http://www.w3.org/2000/svg" xmlns:xlink="http://www.w3.org/1999/xlink" x="0px" y="0px"
	 viewBox="0 0 24 24" style="enable-background:new 0 0 24 24;" xml:space="preserve">
<style type="text/css">
	.st0{fill:#FFFFFF;}
</style>
<path class="st0" d="M22.9,17.1c-0.2,0.2-0.4,0.5-0.7,0.7c-0.1,0.1-0.2,0.2-0.1,0.4c0.1,0.2,0.2,0.5,0.3,0.8c0,0.3-0.1,0.5-0.4,0.6
	c-0.2,0.1-0.4,0.1-0.5,0.1c-0.2,0-0.3,0.1-0.3,0.3c0,0.2,0,0.4,0,0.6c-0.1,0.5-0.4,0.6-0.9,0.5c-0.2,0-0.5-0.2-0.6-0.1
	c-0.2,0.1-0.2,0.3-0.3,0.5c-0.3,0.5-0.7,0.6-1.2,0.3c-0.1-0.1-0.2-0.2-0.4-0.3c-0.1-0.1-0.2-0.1-0.3,0c-0.1,0.1-0.3,0.3-0.5,0.4
	c-0.4,0.2-0.7,0.2-0.9-0.2c-0.1-0.2-0.2-0.4-0.3-0.5c-0.1-0.2-0.1-0.2-0.3-0.1c-0.1,0-0.3,0.1-0.4,0.1c-0.6,0.1-0.9-0.2-0.9-0.7
	c0-0.2,0-0.3,0-0.5c0-0.1-0.1-0.2-0.2-0.2c-0.1,0-0.3-0.1-0.4-0.1c-0.8-0.2-0.8-0.7-0.5-1.2c0.1-0.1,0.1-0.2,0.2-0.3
	c0-0.1,0-0.2-0.1-0.2c-0.1-0.1-0.3-0.2-0.4-0.3c-0.4-0.4-0.4-0.8,0-1.2c0.1-0.1,0.2-0.2,0.3-0.3c0.2-0.1,0.2-0.2,0.1-0.4
	c-0.1-0.1-0.1-0.2-0.1-0.2c-0.3-0.5-0.2-1,0.5-1.2c0.5-0.1,0.5-0.1,0.5-0.7c0-0.1,0-0.3,0.1-0.4c0.1-0.4,0.4-0.5,0.8-0.4
	c0.2,0,0.3,0.1,0.5,0.1c0.1,0,0.2,0,0.2-0.1c0.1-0.1,0.1-0.3,0.2-0.4c0.3-0.5,0.7-0.6,1.2-0.3c0,0,0.1,0.1,0.1,0.1
	c0-1.9,0-3.8,0-5.8c-0.8,0-1.6,0-2.4,0c0,1.1,0,2.3,0,3.4c0.7,0,1.3,0,2,0c0,0.2,0,0.4,0,0.7c-0.8,0-1.6,0-2.4,0c0,0.7,0,1.4,0,2
	c-0.2,0-0.4,0-0.7,0c0-0.7,0-1.3,0-2c-1.4,0-2.7,0-4.1,0c0,4.1,0,8.2,0,12.3c1.4,0,2.7,0,4.1,0c0-0.4,0-0.9,0-1.3c0.2,0,0.4,0,0.7,0
	c0,0.4,0,0.9,0,1.4c0.1,0,0.2,0,0.3,0c1.5,0,2.9,0,4.4,0c0.8,0,1.2-0.4,1.2-1.2c0-0.1,0-0.1,0-0.2c0.2,0,0.4,0,0.7,0
	c0.2,1-0.6,2-1.6,2c0,0-0.1,0-0.1,0c-5,0-10,0-15,0c-0.9,0-1.6-0.6-1.7-1.5c0-0.1,0-0.2,0-0.3c0-3,0-6,0-9c0,0,0-0.1,0-0.1
	c0.2,0,0.4,0,0.7,0c0,0.1,0,0.2,0,0.2c0,2.9,0,5.9,0,8.8c0,0.8,0.4,1.2,1.2,1.2c1.5,0,2.9,0,4.4,0c0.1,0,0.2,0,0.2,0
	c0-4.1,0-8.2,0-12.3c-0.1,0-0.2,0-0.3,0c-2.3,0-4.5,0-6.8,0c-0.8,0-1.2-0.4-1.2-1.2c0-0.8,0-1.7,0-2.5c0-0.7,0.4-1.1,1.1-1.1
	c0.6,0,1.1,0,1.7,0c0,0,0,0,0,0c0-0.2-0.1-0.4-0.1-0.6c0-0.8,0.4-1.4,1.2-1.7c0.4-0.1,0.5-0.2,0.6-0.6c0.2-0.7,0.7-1,1.4-1.2
	c0,0,0.1,0,0.1,0c0.3,0,0.5,0,0.8,0c0.2,0,0.3,0.1,0.4,0.1c1,0.3,1.6,1,1.9,2c0.1,0.2,0.1,0.5,0.2,0.7c1-0.1,2-0.1,2.9,0
	c0.1-0.4,0.3-0.8,0.5-1.2c0.4-0.7,0.9-1.3,1.7-1.5c0.1,0,0.3-0.1,0.4-0.1c0.3,0,0.5,0,0.8,0c0,0,0.1,0,0.1,0
	c0.7,0.2,1.2,0.5,1.4,1.2c0.1,0.4,0.3,0.5,0.6,0.6c0.7,0.2,1.1,0.6,1.2,1.3c0,0.3,0,0.6-0.1,0.9c0.5,0,1.1,0,1.7,0
	c0.1,0,0.2,0,0.3,0c0.4,0.1,0.7,0.4,0.8,0.8c0,1.1,0,2.1,0,3.2c-0.3,0.9-1,0.9-1.7,0.8c0,0.6,0,1.1,0,1.7c-0.2,0-0.4,0-0.7,0
	c0-0.6,0-1.1,0-1.7c-0.2,0-0.4,0-0.7,0c0-0.2,0-0.4,0-0.7c0.7,0,1.3,0,1.9,0c0.3,0,0.4-0.1,0.4-0.4c0-0.8,0-1.7,0-2.5
	c0-0.4-0.1-0.5-0.5-0.5c-1.1,0-2.3,0-3.4,0c-0.1,0-0.1,0-0.2,0c0,1.9,0,3.8,0,5.8c0.1,0,0.1-0.1,0.1-0.1c0.5-0.4,0.9-0.3,1.2,0.3
	c0,0.1,0.1,0.2,0.1,0.2c0.1,0.1,0.1,0.2,0.2,0.4c0.2-0.1,0.3-0.1,0.5-0.1c0.6-0.1,1,0.1,1,0.8c0,0.1,0,0.3,0,0.4
	c0,0.2,0.1,0.3,0.2,0.3c0.2,0,0.3,0.1,0.5,0.1c0.4,0.1,0.5,0.3,0.5,0.7c0,0.2-0.1,0.4-0.2,0.6c-0.1,0.3-0.1,0.3,0.1,0.5
	c0.2,0.2,0.4,0.4,0.6,0.6C22.9,16.8,22.9,17,22.9,17.1z M20.6,20.4c0-0.4-0.1-0.8,0.1-1.1c0.3-0.3,0.7-0.3,1.1-0.4
	c-0.1-0.1-0.1-0.3-0.2-0.4c-0.3-0.5-0.2-1,0.3-1.3c0.1-0.1,0.2-0.2,0.3-0.3c-0.3-0.3-0.7-0.4-0.8-0.9c-0.1-0.4,0.2-0.7,0.3-1.1
	c-0.4-0.1-0.8-0.1-1.1-0.4c-0.3-0.3-0.2-0.7-0.2-1.2c-0.4,0.1-0.8,0.3-1.1,0.1c-0.4-0.2-0.4-0.6-0.6-1c-0.3,0.2-0.6,0.6-1,0.6
	c-0.4,0-0.7-0.3-1-0.6c-0.2,0.4-0.3,0.8-0.6,1c-0.4,0.2-0.7,0-1.1-0.1c0,0.4,0.1,0.8-0.2,1.1c-0.3,0.3-0.7,0.3-1.1,0.4
	c0.2,0.4,0.4,0.7,0.3,1.1c-0.1,0.4-0.5,0.6-0.8,0.9c0.3,0.3,0.7,0.4,0.8,0.9c0.1,0.4-0.2,0.7-0.3,1.1c0.1,0,0.3,0.1,0.4,0.1
	c0.6,0.1,0.9,0.5,0.8,1.1c0,0.1,0,0.2,0,0.4c0.2,0,0.3-0.1,0.4-0.1c0.6-0.1,0.9,0,1.2,0.6c0,0.1,0.1,0.2,0.2,0.4
	c0.3-0.3,0.6-0.6,1-0.6c0.4,0,0.7,0.3,1,0.6C19.2,20.3,19.3,20.1,20.6,20.4z M8.9,6.3c-0.1,0-0.1,0-0.1,0c-2.2,0-4.4,0-6.6,0
	c-0.3,0-0.4,0.1-0.4,0.4c0,0.8,0,1.7,0,2.5c0,0.4,0.1,0.5,0.5,0.5c2.2,0,4.3,0,6.5,0c0.1,0,0.1,0,0.2,0C8.9,8.6,8.9,7.5,8.9,6.3z
	 M9.6,9.7c1.6,0,3.2,0,4.8,0c0-1.1,0-2.3,0-3.4c-1.6,0-3.2,0-4.8,0C9.6,7.5,9.6,8.6,9.6,9.7z M10,5.6C9.9,5.5,9.9,5.4,9.9,5.4
	c-1.2-1-2.5-1.4-4.1-1.4C5.4,3.9,5,4,4.7,4.3C4.5,4.6,4.4,4.9,4.5,5.2c0.1,0.3,0.4,0.4,0.7,0.4c1.2,0,2.4,0,3.6,0
	C9.2,5.6,9.6,5.6,10,5.6z M14,5.6c0.1,0,0.2,0,0.2,0c1.5,0,3.1,0,4.6,0c0.5,0,0.7-0.3,0.7-0.8c0-0.3-0.2-0.6-0.5-0.7
	c-0.3-0.1-0.6-0.2-0.9-0.2c-1.5,0-2.8,0.5-4,1.4C14.1,5.4,14.1,5.5,14,5.6z M6.3,3.2c1.3,0.1,2.5,0.5,3.6,1.2
	C9.7,4.1,9.6,3.7,9.4,3.3c-0.3-0.6-0.9-1-1.6-1.1C7,2.1,6.4,2.5,6.3,3.2z M17.8,3.2c-0.2-0.5-0.5-0.9-1-1c-0.8-0.2-1.4,0.1-2,0.6
	c-0.4,0.4-0.6,1-0.7,1.6C15.2,3.7,16.4,3.3,17.8,3.2z M13.4,5.6c0-0.1,0-0.2,0-0.3c0-0.3-0.1-0.4-0.4-0.4c-0.6,0-1.3,0-1.9,0
	c-0.3,0-0.4,0.1-0.4,0.4c0,0.1,0,0.2,0,0.3C11.5,5.6,12.4,5.6,13.4,5.6z"/>
<path class="st0" d="M2.2,11.2c0-0.2,0-0.5,0-0.7c0.2,0,0.5,0,0.7,0c0,0.2,0,0.5,0,0.7C2.7,11.2,2.4,11.2,2.2,11.2z"/>
<path class="st0" d="M18.9,9.1c0.2,0,0.5,0,0.7,0c0,0.2,0,0.5,0,0.7c-0.2,0-0.5,0-0.7,0C18.9,9.6,18.9,9.3,18.9,9.1z"/>
<path class="st0" d="M20.1,14.3c0.2,0.2,0.3,0.3,0.5,0.5c-1.4,1.4-2.9,2.9-4.3,4.3c-0.1-0.1-0.3-0.3-0.5-0.5
	C17.2,17.2,18.7,15.8,20.1,14.3z"/>
<path class="st0" d="M17.1,13.8c0.6,0,1.1,0.5,1.1,1.1c0,0.6-0.5,1.1-1.1,1.1c-0.6,0-1.1-0.5-1.1-1.1C16,14.3,16.5,13.8,17.1,13.8z
	 M17.5,14.9c0-0.2-0.2-0.4-0.4-0.4c-0.2,0-0.4,0.2-0.4,0.4c0,0.2,0.2,0.4,0.4,0.4C17.3,15.3,17.4,15.1,17.5,14.9z"/>
<path class="st0" d="M20.4,18.5c0,0.6-0.5,1.1-1.1,1.1c-0.6,0-1.1-0.5-1.1-1.1c0-0.6,0.5-1.1,1.1-1.1C19.9,17.4,20.4,17.9,20.4,18.5
	z M19.6,18.5c0-0.2-0.2-0.4-0.4-0.4c-0.2,0-0.4,0.2-0.4,0.4c0,0.2,0.2,0.4,0.4,0.3C19.5,18.9,19.6,18.7,19.6,18.5z"/>
</svg>
