<?xml version="1.0" encoding="utf-8"?>
<!-- Generator: Adobe Illustrator 24.0.1, SVG Export Plug-In . SVG Version: 6.00 Build 0)  -->
<svg version="1.1" id="Layer_1" xmlns="http://www.w3.org/2000/svg" xmlns:xlink="http://www.w3.org/1999/xlink" x="0px" y="0px"
	 viewBox="0 0 24 24" style="enable-background:new 0 0 24 24;" xml:space="preserve">
<style type="text/css">
	.st0{fill:#FFFFFF;}
</style>
<g>
	<path class="st0" d="M12.9,0.8c0.3,0.1,0.7,0.1,1,0.2c1.9,0.4,3.5,1.3,4.8,2.7c1.2,1.3,2,2.9,2.3,4.7c0.4,2.9-0.5,5.5-2.5,7.6
		c-0.2,0.2-0.2,0.2,0,0.5c0.8,1.2,1.7,2.3,2.5,3.5c0.1,0.2,0.2,0.4,0.2,0.6c-0.1,0.4-0.4,0.7-0.8,0.6c-0.6,0-1.1-0.1-1.7-0.1
		c-0.2,0-0.2,0-0.2,0.2c-0.1,0.5-0.3,1.1-0.4,1.6c-0.1,0.2-0.2,0.4-0.4,0.5c-0.3,0.2-0.7,0.1-0.9-0.3c-0.2-0.3-0.4-0.5-0.5-0.8
		c-0.9-1.3-1.8-2.5-2.6-3.8c-0.1-0.1-0.2-0.2-0.3-0.1c-0.5,0.1-1.1,0.1-1.6,0c-0.1,0-0.2,0-0.3,0.1c-1,1.5-2.1,3-3.2,4.5
		c-0.2,0.3-0.5,0.5-0.9,0.3c-0.3-0.1-0.4-0.3-0.5-0.5c-0.1-0.5-0.3-1.1-0.4-1.6c0-0.1-0.1-0.2-0.2-0.2c-0.6,0.1-1.1,0.1-1.7,0.1
		c-0.3,0-0.6-0.1-0.7-0.4c-0.2-0.3-0.1-0.6,0.1-0.8c0.8-1.1,1.5-2.1,2.3-3.2c0.1-0.2,0.2-0.3,0.3-0.4c0.1-0.1,0.1-0.2,0-0.3
		c-0.7-0.6-1.3-1.4-1.7-2.2c-0.9-1.7-1.2-3.4-1-5.3c0.4-3,2-5.2,4.6-6.7c1-0.6,2.1-0.9,3.3-1c0,0,0.1,0,0.1,0
		C11.9,0.8,12.4,0.8,12.9,0.8z M12.2,1.5C7.7,1.5,4,5.2,4,9.7c0,4.5,3.6,8.2,8.2,8.2c4.5,0,8.2-3.6,8.2-8.2
		C20.3,5.2,16.7,1.5,12.2,1.5z M10.4,18.4c-0.5-0.1-1.1-0.3-1.5-0.5c-0.1-0.1-0.2,0-0.3,0.1c-0.3,0.5-0.7,1-1.1,1.5
		c0,0.1-0.1,0.1-0.2,0.2c-0.1,0.1-0.3,0.1-0.4,0c-0.1-0.1-0.2-0.2-0.1-0.4c0-0.1,0.1-0.1,0.1-0.2c0.3-0.5,0.7-1,1-1.4
		c0.1-0.1,0.1-0.2,0-0.2c-0.4-0.2-0.8-0.5-1.1-0.7c-0.1-0.1-0.2-0.1-0.2,0c-0.8,1.2-1.7,2.4-2.5,3.6C4,20.4,4,20.4,4,20.5
		c0,0.1,0.1,0,0.2,0c0.7-0.1,1.3-0.1,2-0.2c0.3,0,0.4,0,0.5,0.3C6.8,21.4,7,22,7.1,22.6c0,0.1,0,0.2,0.1,0.2c0.1,0,0.1-0.1,0.2-0.1
		c0.5-0.7,1-1.4,1.5-2.2C9.4,19.8,9.9,19.1,10.4,18.4z M13.9,18.4c1,1.5,2.1,2.9,3.1,4.4c0,0,0,0.1,0.1,0.1c0.1,0,0.1-0.1,0.1-0.1
		c0.2-0.6,0.3-1.3,0.5-1.9c0.1-0.3,0.2-0.4,0.5-0.3c0.7,0,1.3,0.1,2,0.2c0.1,0,0.1,0,0.2,0c0-0.1,0-0.1-0.1-0.2
		c-0.9-1.2-1.7-2.4-2.6-3.6c-0.1-0.1-0.1-0.1-0.2,0c-0.4,0.3-0.8,0.5-1.2,0.8c-0.1,0.1-0.1,0.1,0,0.2c0.2,0.3,0.5,0.7,0.7,1
		c0.1,0.2,0.3,0.4,0.4,0.6c0.1,0.1,0.1,0.3-0.1,0.4c-0.1,0.1-0.3,0.1-0.4,0c-0.1,0-0.1-0.1-0.2-0.2c-0.4-0.5-0.7-1-1.1-1.5
		c0-0.1-0.1-0.1-0.2-0.1C15,18.1,14.4,18.2,13.9,18.4z"/>
	<path class="st0" d="M12.2,5.4C11.8,6.2,11.4,7,11,7.7c-0.1,0.3-0.3,0.4-0.6,0.4C9.7,8.2,8.9,8.3,8,8.5c0,0.1,0.1,0.1,0.1,0.2
		c0.6,0.5,1.1,1.1,1.7,1.6c0.2,0.2,0.2,0.4,0.2,0.6c-0.1,0.8-0.3,1.6-0.4,2.4c0,0,0,0,0,0.1c0.7-0.4,1.5-0.8,2.2-1.2
		c0.2-0.1,0.4-0.1,0.7,0c0.7,0.4,1.5,0.8,2.2,1.2c-0.1-0.5-0.2-1-0.2-1.4c-0.1-0.4-0.1-0.8-0.2-1.1c0-0.2,0-0.4,0.2-0.5
		c0.6-0.5,1.1-1.1,1.7-1.6c0.1-0.1,0.1-0.1,0.2-0.1c0,0,0,0,0-0.1c-0.4-0.1-0.9-0.1-1.3-0.2c-0.4-0.1-0.9-0.1-1.3-0.2
		c-0.2,0-0.4-0.2-0.3-0.4c0-0.2,0.2-0.3,0.4-0.3c0.9,0.1,1.8,0.3,2.7,0.4c0.3,0,0.4,0.2,0.5,0.4c0.1,0.3,0,0.5-0.2,0.7
		c-0.6,0.6-1.1,1.1-1.7,1.7c-0.1,0.1-0.1,0.2-0.1,0.3c0.1,0.8,0.3,1.5,0.4,2.3c0.1,0.5-0.1,0.8-0.6,0.9c-0.2,0-0.3,0-0.4-0.1
		c-0.7-0.4-1.4-0.7-2-1.1c-0.1-0.1-0.2-0.1-0.3,0c-0.7,0.4-1.4,0.7-2.1,1.1c-0.4,0.2-0.8,0.1-0.9-0.3c-0.1-0.2,0-0.3,0-0.5
		c0.1-0.8,0.3-1.5,0.4-2.3c0-0.1,0-0.2-0.1-0.3C8.7,10.1,8.1,9.5,7.6,9C7.4,8.8,7.2,8.6,7.3,8.2C7.4,8,7.7,7.8,7.9,7.8
		c0.8-0.1,1.5-0.2,2.3-0.3c0.2,0,0.2-0.1,0.3-0.2c0.3-0.7,0.7-1.4,1-2.1c0.1-0.3,0.3-0.5,0.6-0.5s0.5,0.2,0.6,0.4
		c0.2,0.4,0.4,0.7,0.5,1.1c0.1,0.2,0.1,0.4-0.1,0.5c-0.2,0.1-0.4,0-0.5-0.2C12.5,6.2,12.3,5.8,12.2,5.4z"/>
	<path class="st0" d="M12,16.7c-1.3,0-2.5-0.4-3.7-1.1c-0.2-0.1-0.3-0.2-0.5-0.4c-0.2-0.2-0.3-0.3-0.1-0.5c0.1-0.2,0.3-0.2,0.5,0
		c0.5,0.4,1.1,0.7,1.7,1c2.1,0.7,4.1,0.5,6-0.8c1.5-1.1,2.4-2.5,2.6-4.4c0.2-1.7-0.2-3.2-1.1-4.6c-0.1-0.1-0.1-0.2-0.2-0.3
		C17,5.5,17,5.3,17.2,5.2c0.2-0.1,0.3-0.1,0.5,0.1c0.3,0.3,0.5,0.7,0.7,1.1c0.6,1.1,0.9,2.3,0.8,3.6c-0.1,2.2-1,3.9-2.7,5.3
		c-1.2,1-2.7,1.5-4.2,1.5c-0.1,0-0.1,0-0.2,0C12.1,16.8,12,16.7,12,16.7z"/>
	<path class="st0" d="M12.2,2.6c1.5,0,3,0.5,4.3,1.5c0.2,0.2,0.2,0.3,0.1,0.5c-0.1,0.2-0.3,0.2-0.5,0c-0.7-0.6-1.5-1-2.4-1.2
		C11.9,3,10.1,3.3,8.5,4.4C7,5.5,6.1,7,5.8,8.8C5.6,10.5,6,12,7,13.4c0.1,0.1,0.1,0.2,0.2,0.3c0.1,0.2,0.1,0.4,0,0.5
		c-0.2,0.1-0.3,0.1-0.5-0.1c-0.3-0.3-0.5-0.7-0.7-1.1c-0.6-1.1-0.8-2.3-0.8-3.5C5.1,7.8,5.7,6.3,6.8,5C7.8,3.9,9,3.2,10.4,2.8
		C10.9,2.7,11.5,2.6,12.2,2.6z"/>
</g>
</svg>
